# xmcd
#
# Track frame offsets:
#	150
#	13316
#	28176
#	44617
#	56175
#	72962
#	84957
#	98016
#	110772
#	122706
#	138361
#	151420
#	171076
#
# Disc length: 2460 seconds
# Revision: 0
# Processed by: cddbd v1.5.2PL0 Copyright (c) Steve Scherf et al.
# Submitted via: dBpowerAMP V12.0
#
DISCID=b4099a0d
DTITLE=The Moon Trotters - The Moon Trotters
DYEAR=2016
DGENRE=Country
TTITLE0=Victor Vindaloo
TTITLE1=Gypsy Queen
TTITLE2=Lost Man in a Foreign Country
TTITLE3=Breaking Up Christmas
TTITLE4=You Name the baby
TTITLE5=Richmond
TTITLE6=Do You Believe in Ghosts?
TTITLE7=Victor in A minor
TTITLE8=Mississippi Pearl
TTITLE9=Durang's Hornpipe
TTITLE10=It Takes One to Know One
TTITLE11=Julianne Johnson
TTITLE12=Smile
EXTD=
EXTT0=
EXTT1=
EXTT2=
EXTT3=
EXTT4=
EXTT5=
EXTT6=
EXTT7=
EXTT8=
EXTT9=
EXTT10=
EXTT11=
EXTT12=
PLAYORDER=
